<?xml version="1.0" standalone="no"?>
<!DOCTYPE svg PUBLIC "-//W3C//DTD SVG 20010904//EN"
 "http://www.w3.org/TR/2001/REC-SVG-20010904/DTD/svg10.dtd">
<svg version="1.0" xmlns="http://www.w3.org/2000/svg"
 width="700.000000pt" height="700.000000pt" viewBox="0 0 700.000000 700.000000"
 preserveAspectRatio="xMidYMid meet">
<metadata>
Created by potrace 1.11, written by Peter Selinger 2001-2013
</metadata>
<g transform="translate(0.000000,700.000000) scale(0.100000,-0.100000)"
fill="#000000" stroke="none">
<path d="M68 6989 c-38 -14 -71 -70 -64 -109 5 -38 29 -76 55 -90 27 -14 470
-160 487 -160 14 0 24 -29 48 -145 8 -38 35 -158 60 -265 25 -107 47 -206 49
-220 3 -14 10 -43 15 -65 6 -22 13 -51 16 -65 13 -64 18 -86 37 -168 12 -48
23 -98 26 -112 2 -14 9 -43 15 -65 5 -22 12 -51 15 -65 2 -14 15 -71 28 -128
14 -56 27 -115 30 -130 2 -15 21 -95 41 -179 28 -118 41 -157 60 -176 33 -33
85 -42 124 -22 21 11 187 225 533 688 276 370 516 691 532 715 l30 43 84 -6
c47 -3 87 -8 90 -9 3 -2 47 -7 96 -11 50 -4 99 -9 110 -11 11 -1 23 -3 28 -3
4 -1 7 -360 7 -799 0 -834 -1 -801 36 -850 1 -2 20 -10 41 -17 32 -11 43 -11
70 0 18 8 153 107 300 221 148 114 305 236 350 272 l83 63 202 -156 c112 -86
211 -162 220 -170 51 -42 263 -203 288 -218 56 -35 122 -21 153 33 16 26 17
99 17 823 l0 795 38 6 c20 3 69 8 107 12 39 3 78 8 87 9 9 2 49 7 90 10 40 4
75 9 77 11 2 2 246 -320 542 -716 525 -702 565 -750 614 -750 28 0 79 29 94
52 12 19 30 82 45 159 2 13 32 143 65 289 34 146 61 280 61 299 0 43 -57 101
-100 101 -43 0 -77 -16 -96 -45 -15 -22 -54 -161 -69 -247 -7 -37 -45 -200
-51 -217 -4 -12 -48 42 -160 194 -8 11 -164 220 -348 465 -183 245 -332 446
-332 447 1 2 214 38 281 48 22 4 49 9 60 12 11 3 29 7 40 9 86 11 299 59 564
125 107 27 196 47 198 46 1 -2 -13 -71 -32 -154 -19 -82 -36 -161 -39 -174 -2
-13 -11 -53 -20 -89 -20 -83 -20 -115 1 -151 15 -25 32 -36 84 -52 26 -9 96
31 108 61 9 24 44 165 57 232 3 13 14 61 24 106 11 45 22 95 25 111 23 126 41
178 65 190 14 6 126 44 250 84 252 82 281 99 285 165 2 21 -4 52 -12 67 -17
33 -70 58 -110 53 -15 -3 -130 -38 -255 -80 -178 -59 -600 -183 -688 -201 -8
-2 -94 -21 -190 -44 -147 -33 -250 -55 -470 -97 -14 -2 -36 -7 -50 -9 -14 -3
-56 -10 -95 -15 -75 -11 -115 -18 -155 -25 -14 -2 -45 -7 -70 -10 -25 -4 -56
-8 -70 -10 -14 -2 -50 -6 -80 -10 -30 -3 -71 -8 -90 -10 -99 -13 -310 -33
-405 -40 -64 -4 -223 -13 -370 -20 -209 -11 -741 -5 -970 10 -156 10 -241 16
-280 20 -22 2 -74 6 -115 10 -41 3 -86 8 -100 10 -14 2 -50 6 -80 10 -51 5
-181 22 -240 30 -70 10 -299 46 -325 51 -218 40 -356 68 -430 85 -405 95 -657
164 -961 264 -251 83 -277 89 -316 74z m968 -495 c94 -24 187 -46 205 -49 19
-3 50 -10 69 -15 19 -5 107 -23 195 -41 88 -17 169 -33 180 -35 10 -2 37 -6
60 -9 22 -3 47 -8 55 -10 8 -2 33 -7 55 -10 22 -3 54 -9 71 -13 l30 -7 -418
-559 c-234 -313 -420 -552 -423 -545 -4 14 -82 351 -91 399 -3 14 -35 153 -70
310 -36 157 -67 292 -69 300 -17 80 -67 300 -72 318 -5 21 -3 22 23 16 16 -4
106 -26 200 -50z m2469 -297 c165 0 379 3 476 8 l176 7 0 -656 c0 -361 -1
-656 -3 -656 -2 0 -152 116 -522 403 -87 67 -117 79 -164 63 -20 -7 -164 -112
-320 -233 -155 -121 -288 -222 -294 -226 -8 -4 -11 180 -11 649 l0 655 181 -7
c100 -4 316 -7 481 -7z"/>
<path d="M63 4710 c-52 -21 -75 -101 -45 -157 19 -34 49 -47 280 -123 171 -56
222 -77 222 -89 0 -9 -9 -59 -21 -111 -31 -142 -65 -304 -109 -510 -21 -102
-73 -344 -115 -539 -41 -195 -75 -364 -75 -377 0 -58 52 -108 110 -107 23 0
97 31 215 88 204 99 407 197 540 261 l90 43 25 -27 c14 -15 48 -54 76 -87 27
-33 59 -71 71 -85 11 -14 109 -128 215 -255 107 -126 201 -235 209 -242 36
-30 111 -19 146 20 22 24 31 57 93 357 23 107 55 258 71 334 16 77 31 149 33
160 3 12 32 149 66 306 34 157 64 296 66 310 2 14 7 39 11 55 4 17 7 35 8 40
0 13 120 9 260 -10 17 -2 57 -7 90 -10 32 -3 60 -7 62 -9 2 -2 187 -401 286
-616 25 -55 125 -272 177 -385 16 -33 85 -184 155 -335 138 -302 158 -330 224
-330 76 0 76 1 263 410 109 237 433 938 483 1046 24 50 55 119 70 153 17 36
34 61 44 62 9 1 27 2 41 4 14 1 57 5 95 9 39 4 110 12 159 17 99 12 100 11
111 -50 5 -30 48 -236 166 -791 11 -52 25 -115 30 -140 6 -25 34 -159 64 -298
29 -139 61 -264 70 -278 19 -29 73 -55 103 -49 38 7 60 25 118 93 31 37 76 90
100 117 23 28 71 84 105 125 34 41 65 77 68 80 3 3 51 59 106 125 55 66 111
132 125 147 l25 27 80 -39 c44 -21 157 -75 250 -120 512 -248 497 -241 535
-233 36 7 78 47 87 82 3 14 1 52 -6 86 -7 33 -14 67 -16 75 -13 65 -146 691
-161 755 -2 11 -7 34 -10 50 -3 17 -14 68 -24 115 -10 47 -21 99 -24 115 -9
45 -13 66 -49 230 l-32 151 165 53 c290 92 317 105 344 154 18 31 18 39 7 76
-13 47 -57 81 -102 81 -15 0 -91 -22 -170 -49 -150 -51 -282 -94 -359 -116
-304 -87 -663 -176 -890 -220 -74 -14 -155 -30 -180 -35 -81 -17 -464 -75
-565 -85 -33 -3 -67 -8 -75 -10 -8 -2 -49 -7 -90 -10 -41 -4 -86 -8 -100 -10
-39 -6 -162 -15 -430 -32 -165 -10 -887 -10 -1065 1 -77 4 -162 9 -190 11 -27
2 -77 6 -110 9 -33 3 -107 10 -165 16 -187 17 -563 68 -700 93 -14 3 -86 16
-160 31 -74 14 -147 27 -162 30 -56 10 -507 119 -640 155 -132 36 -397 118
-553 171 -150 50 -181 56 -222 40z m822 -455 c123 -33 320 -81 375 -91 14 -3
32 -7 40 -10 13 -5 61 -15 140 -30 243 -46 342 -65 375 -69 22 -3 51 -8 65
-10 14 -3 43 -8 65 -11 22 -3 47 -8 55 -9 8 -2 19 -4 23 -4 5 -1 6 -5 3 -9 -3
-5 -8 -22 -10 -39 -5 -24 -68 -326 -81 -383 -2 -8 -20 -94 -40 -190 -21 -96
-46 -215 -57 -265 -10 -49 -21 -101 -24 -115 -8 -41 -35 -164 -38 -175 -1 -5
-6 -32 -11 -58 -4 -26 -11 -47 -15 -45 -4 2 -112 127 -240 278 -127 151 -246
285 -263 298 -45 33 -78 26 -237 -51 -74 -35 -216 -104 -315 -152 -187 -90
-225 -107 -225 -100 0 2 7 37 16 77 8 40 18 84 20 98 3 14 14 65 25 113 10 48
22 105 25 125 3 20 8 40 10 43 2 3 6 20 9 37 3 17 17 84 31 149 14 65 28 132
31 148 2 17 8 46 13 65 5 19 25 114 45 210 41 200 44 210 53 210 4 0 66 -16
137 -35z m5379 18 c2 -10 10 -45 17 -78 7 -33 13 -62 14 -65 1 -3 5 -25 9 -50
4 -25 11 -58 16 -75 5 -16 12 -43 15 -60 2 -16 7 -41 10 -55 3 -14 7 -36 10
-50 3 -14 7 -34 9 -45 24 -110 126 -586 130 -605 10 -52 16 -76 27 -123 6 -26
9 -50 7 -53 -3 -2 -99 41 -214 97 -346 168 -455 219 -480 225 -51 13 -83 -7
-162 -101 -289 -343 -418 -492 -424 -487 -4 4 -14 43 -23 87 -10 44 -18 87
-20 95 -9 41 -46 219 -49 236 -3 10 -9 39 -15 64 -5 25 -12 56 -15 70 -2 14
-19 90 -36 170 -17 80 -34 159 -36 175 -3 17 -10 48 -16 70 -5 22 -12 51 -14
65 -3 14 -7 32 -9 40 -2 8 -7 29 -10 45 -3 17 -11 58 -18 92 -13 60 -13 62 8
67 22 6 136 24 205 32 19 3 94 16 165 30 72 14 139 28 150 30 11 2 31 6 45 9
14 2 36 7 50 9 71 14 187 41 395 94 127 33 235 60 242 61 6 0 14 -7 17 -16z
m-2749 -356 c110 0 284 3 387 7 l187 8 -140 -304 c-78 -166 -150 -323 -161
-348 -25 -54 -53 -115 -148 -320 -39 -85 -85 -185 -102 -222 -17 -38 -34 -68
-38 -68 -4 0 -33 57 -65 128 -32 70 -77 168 -101 217 -23 50 -108 234 -189
410 -181 395 -204 443 -222 478 l-14 28 203 -7 c112 -4 293 -7 403 -7z"/>
<path d="M72 2434 c-33 -14 -72 -66 -72 -97 0 -33 32 -87 59 -101 14 -7 105
-39 201 -71 96 -32 204 -67 239 -79 l64 -22 79 -345 c43 -189 87 -384 98 -434
11 -49 42 -189 70 -310 28 -121 71 -312 96 -425 49 -216 60 -249 96 -274 30
-21 97 -20 125 2 11 9 156 197 320 417 164 220 404 541 532 712 215 289 235
313 260 309 14 -3 62 -8 106 -12 44 -3 82 -8 85 -9 3 -2 43 -6 90 -10 47 -4
88 -10 92 -13 4 -4 8 -130 10 -280 l3 -274 33 -29 c45 -40 99 -40 145 1 19 16
34 35 35 42 1 7 3 129 4 271 l2 257 75 -5 c223 -16 670 -20 966 -9 94 3 193 7
220 8 l50 1 1 -657 c1 -610 0 -656 -16 -645 -17 13 -282 217 -458 355 -187
145 -178 146 -367 -2 -49 -38 -94 -74 -100 -78 -61 -51 -360 -278 -365 -278
-4 0 -7 80 -7 178 0 97 -3 194 -7 214 -16 84 -114 116 -178 59 l-33 -29 0
-356 0 -356 26 -26 c16 -15 41 -27 65 -31 33 -4 47 1 96 34 55 37 535 407 631
486 27 23 53 37 62 33 8 -3 121 -88 251 -188 442 -343 471 -364 506 -366 41
-3 95 29 108 64 6 16 10 326 10 814 0 434 3 791 8 793 4 3 42 8 84 12 43 3 88
8 100 10 13 2 52 6 88 10 36 3 79 8 97 10 30 4 36 -3 234 -268 715 -957 856
-1144 877 -1164 28 -26 56 -32 96 -21 50 13 74 45 91 122 9 39 19 80 21 91 3
11 7 31 10 45 3 14 20 90 39 170 19 80 68 298 110 485 42 187 79 348 81 358 6
25 11 45 28 118 8 37 17 78 20 90 2 13 12 56 21 94 9 39 19 79 21 90 29 150
20 139 137 175 153 48 382 127 405 139 25 13 54 74 50 104 -5 32 -33 74 -60
88 -36 19 -70 13 -241 -45 -232 -79 -708 -218 -827 -241 -8 -2 -85 -19 -170
-38 -85 -20 -193 -43 -240 -51 -47 -9 -96 -18 -110 -21 -42 -9 -243 -44 -285
-50 -22 -3 -65 -10 -95 -15 -73 -12 -121 -19 -178 -25 -26 -3 -63 -8 -82 -10
-70 -9 -206 -24 -270 -29 -36 -4 -90 -8 -120 -11 -392 -35 -1061 -39 -1500
-10 -150 10 -227 16 -250 20 -14 2 -61 7 -104 10 -43 4 -86 8 -95 10 -15 2
-76 10 -176 21 -22 2 -65 9 -95 14 -30 5 -77 12 -105 15 -27 4 -57 8 -65 10
-8 2 -33 7 -55 10 -23 3 -50 7 -60 9 -11 2 -40 7 -65 11 -25 4 -54 9 -65 11
-11 3 -78 16 -150 30 -71 14 -148 30 -170 35 -22 5 -51 12 -65 14 -221 47
-681 175 -950 266 -232 78 -240 79 -278 63z m6082 -600 c-19 -87 -37 -166 -39
-174 -10 -42 -24 -108 -28 -130 -3 -14 -13 -56 -22 -95 -9 -38 -19 -81 -21
-95 -3 -14 -11 -50 -19 -80 -8 -30 -16 -66 -19 -80 -3 -14 -7 -34 -10 -45 -12
-52 -25 -112 -30 -135 -22 -114 -82 -360 -88 -360 -3 0 -30 33 -59 72 -30 40
-207 278 -394 528 -187 250 -350 469 -363 486 l-22 32 23 0 c12 0 74 9 137 21
63 11 129 23 147 26 149 25 534 110 733 163 58 15 106 27 108 27 1 -1 -14 -73
-34 -161z m-5219 130 c53 -14 105 -27 116 -30 10 -2 27 -6 37 -8 78 -19 292
-69 312 -72 14 -3 81 -16 150 -29 69 -14 184 -34 255 -46 72 -12 134 -25 138
-29 5 -4 -134 -198 -309 -431 -174 -233 -360 -481 -412 -552 -52 -70 -98 -127
-102 -127 -3 0 -14 37 -24 83 -17 81 -44 198 -51 227 -2 8 -17 78 -35 155 -17
77 -54 239 -81 360 -49 212 -55 236 -63 280 -2 11 -14 61 -25 110 -12 50 -24
100 -26 113 -7 28 0 28 120 -4z"/>
</g>
</svg>
