<?xml version="1.0" standalone="no"?>
<!DOCTYPE svg PUBLIC "-//W3C//DTD SVG 20010904//EN"
 "http://www.w3.org/TR/2001/REC-SVG-20010904/DTD/svg10.dtd">
<svg version="1.0" xmlns="http://www.w3.org/2000/svg"
 width="700.000000pt" height="700.000000pt" viewBox="0 0 700.000000 700.000000"
 preserveAspectRatio="xMidYMid meet">
<metadata>
Created by potrace 1.11, written by Peter Selinger 2001-2013
</metadata>
<g transform="translate(0.000000,700.000000) scale(0.100000,-0.100000)"
fill="#000000" stroke="none">
<path d="M2318 6995 c-2 -3 -28 -7 -57 -10 -150 -15 -366 -97 -530 -202 -173
-110 -355 -288 -479 -468 -188 -275 -311 -589 -366 -935 -78 -494 -6 -894 243
-1347 56 -102 220 -343 261 -383 3 -3 25 -30 50 -60 126 -155 394 -397 560
-504 82 -53 227 -128 285 -147 22 -7 44 -16 48 -20 12 -9 -17 -63 -50 -93
l-26 -25 82 26 c45 14 83 24 85 22 5 -7 75 -321 95 -429 17 -89 36 -204 46
-285 19 -137 25 -188 30 -235 3 -30 8 -71 10 -90 2 -19 7 -78 10 -130 4 -52 9
-122 12 -155 3 -33 6 -257 7 -499 l1 -439 24 -9 c19 -6 32 -3 58 14 40 28 43
36 48 130 5 93 5 649 1 748 -10 191 -22 356 -30 420 -3 19 -8 64 -11 100 -3
36 -7 77 -10 90 -3 14 -7 51 -10 84 -4 33 -8 62 -10 65 -1 3 -6 35 -10 71 -4
36 -9 68 -11 71 -2 3 -5 19 -8 35 -25 149 -40 226 -65 327 -15 65 -25 119 -22
121 3 2 23 -2 44 -9 36 -12 37 -12 24 3 -17 20 -50 83 -45 87 2 1 38 19 81 38
92 42 175 92 272 161 78 56 245 194 245 203 0 3 -30 59 -66 124 -75 135 -149
312 -188 449 -27 98 -29 107 -40 175 -16 98 -18 127 -20 249 -9 697 301 1358
792 1691 l100 67 -41 72 c-113 200 -245 357 -442 526 -40 34 -189 132 -243
159 -111 57 -264 108 -407 136 -37 8 -321 16 -327 10z m311 -120 c158 -27 306
-81 436 -159 140 -84 281 -205 390 -336 59 -71 175 -236 175 -249 0 -3 -17
-17 -37 -31 -55 -37 -180 -145 -246 -215 -393 -410 -616 -1086 -564 -1706 4
-47 12 -101 17 -119 l9 -32 -46 6 c-25 3 -47 7 -48 8 -2 2 -40 79 -86 171 -45
93 -89 171 -96 174 -24 9 -42 -17 -123 -183 -44 -90 -81 -164 -84 -164 -2 0
-62 -9 -132 -19 -71 -11 -149 -22 -174 -26 -119 -16 -117 -23 50 -187 115
-113 140 -142 135 -160 -6 -28 -23 -129 -30 -183 -3 -22 -8 -46 -10 -53 -3 -7
-7 -39 -11 -72 -8 -81 6 -86 100 -36 39 21 116 60 170 88 l99 51 104 -54 c58
-30 133 -69 167 -86 112 -59 118 -50 81 137 -3 13 -8 42 -11 65 -4 22 -8 51
-11 65 -15 96 -15 105 12 130 l25 23 27 -64 c15 -35 53 -115 85 -178 32 -63
58 -117 58 -121 0 -10 -127 -111 -212 -169 -93 -63 -248 -145 -248 -131 0 6
-3 9 -7 9 -5 -1 -25 -1 -45 0 -32 1 -37 5 -43 30 -15 67 -124 30 -129 -43 -1
-34 -15 -33 -108 8 -179 78 -374 222 -584 431 -142 141 -231 243 -305 352
l-32 46 114 -61 c265 -140 270 -142 291 -131 24 13 24 12 -23 278 l-32 185
161 156 c200 195 201 203 27 225 -27 3 -108 15 -179 25 -71 11 -133 20 -137
20 -5 0 -54 89 -108 199 -55 109 -107 201 -117 205 -9 3 -23 1 -32 -6 -8 -7
-57 -99 -108 -204 l-93 -191 -42 -7 c-23 -4 -46 -3 -50 1 -5 5 -18 65 -30 133
-55 320 -15 704 109 1057 20 57 37 101 39 100 1 -2 -8 -66 -21 -143 -14 -76
-27 -155 -30 -174 -8 -47 -15 -90 -21 -120 -22 -109 -24 -146 -9 -168 26 -37
51 -33 167 28 111 57 144 74 389 204 l128 67 92 -50 c179 -95 344 -182 444
-232 100 -50 102 -51 128 -34 35 23 34 42 -14 320 -22 127 -47 272 -56 323
l-16 93 93 91 c266 257 409 401 414 419 13 41 -18 66 -97 79 -96 15 -114 18
-173 25 -27 4 -57 8 -65 10 -8 2 -35 7 -60 10 -88 11 -116 15 -139 20 -13 2
-46 7 -75 10 -116 14 -118 15 -153 85 -18 36 -32 68 -33 71 0 4 10 10 23 13
87 26 180 47 222 52 28 4 51 8 53 9 11 10 227 3 301 -10z m-671 -197 c60 -124
52 -117 167 -133 22 -3 51 -8 65 -10 14 -2 43 -7 65 -9 22 -3 90 -13 150 -22
61 -8 123 -17 138 -19 103 -13 114 5 -129 -230 -213 -207 -219 -213 -218 -251
1 -21 22 -160 48 -307 25 -148 46 -271 46 -273 0 -3 -51 21 -112 54 -62 32
-171 90 -243 127 -71 37 -139 73 -150 80 -35 22 -77 9 -220 -67 -309 -165
-375 -198 -375 -187 0 6 14 93 30 192 17 100 33 196 36 212 6 37 23 132 28
162 3 13 -6 37 -20 59 l-25 36 27 46 c130 226 342 444 555 572 45 28 86 50 90
50 4 0 25 -37 47 -82z m-536 -1984 c88 -178 87 -177 173 -187 87 -11 129 -17
150 -21 11 -3 47 -8 80 -11 33 -4 62 -9 64 -11 2 -2 -58 -64 -134 -137 l-139
-133 18 -115 c10 -63 20 -123 22 -134 2 -11 6 -33 9 -50 3 -16 8 -42 11 -57 3
-16 3 -28 -1 -28 -3 0 -80 38 -170 85 -110 58 -173 85 -191 83 -24 -3 -32 6
-78 87 -84 144 -186 380 -186 427 0 13 8 18 29 18 73 0 82 10 167 185 43 90
83 165 87 165 4 0 44 -75 89 -166z m1178 -568 c76 -157 67 -149 170 -161 25
-3 48 -9 51 -13 3 -4 14 -42 24 -84 l19 -76 -47 -48 c-26 -26 -47 -57 -47 -68
0 -12 7 -58 14 -103 8 -45 18 -101 21 -125 3 -24 8 -51 11 -60 6 -19 -15 -25
-32 -9 -5 5 -66 38 -135 74 l-126 66 -34 -18 c-19 -10 -86 -45 -149 -78 l-116
-60 13 71 c7 39 15 91 18 116 4 25 10 64 16 88 6 26 6 49 0 60 -5 9 -59 65
-119 124 -106 102 -109 107 -84 112 37 8 81 14 227 32 28 3 59 12 70 19 11 7
49 74 85 148 36 75 68 137 72 137 4 0 39 -65 78 -144z"/>
<path d="M4549 6286 c-2 -2 -44 -7 -94 -11 -49 -4 -92 -8 -95 -10 -3 -2 -23
-6 -45 -9 -371 -58 -773 -354 -1012 -746 -145 -238 -257 -532 -298 -782 -3
-18 -8 -46 -12 -63 -27 -135 -34 -457 -13 -615 53 -387 259 -812 575 -1187
249 -295 629 -581 863 -649 28 -9 52 -19 52 -24 0 -4 -13 -22 -30 -40 -16 -18
-30 -34 -30 -36 0 -1 25 6 57 17 31 10 59 19 62 19 3 0 6 -116 6 -257 1 -237
3 -264 24 -338 42 -148 129 -293 244 -407 56 -54 57 -51 -18 -90 -134 -70
-240 -173 -275 -265 -38 -101 -24 -189 63 -413 56 -145 61 -165 61 -274 1
-108 13 -123 72 -91 50 27 66 69 65 169 -1 100 -25 196 -93 363 -99 245 -65
311 224 438 182 80 188 109 55 239 -139 135 -209 240 -256 383 -33 100 -39
191 -32 511 l1 52 38 0 c20 0 53 -10 72 -21 31 -19 33 -19 19 -3 -18 20 -53
85 -47 87 258 126 419 240 626 445 137 137 185 192 287 327 203 271 338 536
414 812 17 59 33 131 37 158 3 28 8 52 9 56 2 3 7 39 11 80 13 121 8 326 -11
469 -2 19 -7 55 -10 79 -48 361 -228 776 -463 1064 -128 158 -357 345 -504
412 -32 15 -58 31 -58 36 0 5 -7 9 -16 9 -8 0 -61 15 -117 34 -56 19 -122 37
-147 41 -24 4 -47 8 -50 10 -3 2 -44 6 -90 10 -47 4 -92 9 -101 11 -8 2 -17 2
-20 0z m126 -120 c96 -9 154 -22 263 -59 l63 -21 -53 -52 c-29 -28 -63 -62
-76 -76 l-23 -25 26 -149 c14 -82 27 -155 30 -161 2 -7 2 -13 -1 -13 -2 0 -71
34 -151 77 l-146 76 -46 -24 c-25 -13 -91 -47 -145 -76 -55 -29 -101 -53 -103
-53 -4 0 1 39 12 90 3 14 7 42 10 62 3 20 9 56 15 80 20 90 17 97 -76 187 -47
46 -84 84 -82 86 13 11 199 48 268 52 47 3 86 7 88 8 2 2 17 1 35 -1 18 -1 59
-5 92 -8z m-402 -230 c22 -24 22 -13 -14 -222 -42 -244 -55 -238 201 -102
l145 77 173 -91 c200 -104 209 -104 197 -9 -4 30 -9 64 -11 76 -3 11 -14 72
-24 135 l-20 115 67 67 c37 38 73 68 79 68 20 0 154 -79 234 -138 41 -30 116
-96 166 -146 87 -88 204 -232 204 -253 0 -7 -176 -371 -184 -380 -1 -1 -65
-12 -141 -23 -77 -12 -151 -23 -165 -25 -62 -9 -99 -14 -145 -20 -116 -15
-151 -37 -127 -82 9 -17 123 -131 318 -320 l82 -78 -43 -250 c-24 -138 -45
-262 -48 -276 -6 -33 17 -69 45 -69 11 0 66 24 121 54 56 29 161 84 232 121
72 37 135 71 140 76 6 4 68 -22 140 -60 101 -53 130 -72 129 -87 -8 -101 -57
-299 -107 -429 -78 -205 -222 -450 -381 -650 -79 -99 -307 -338 -314 -330 -3
3 -8 24 -12 47 -23 137 -51 295 -56 309 -2 9 2 23 9 30 104 100 327 323 327
328 0 4 -7 16 -15 27 -11 16 -30 23 -77 29 -35 4 -72 9 -83 10 -90 13 -255 37
-274 40 -13 3 -28 8 -32 12 -5 5 -53 99 -108 209 -97 198 -117 225 -150 205
-5 -4 -56 -99 -112 -211 -55 -113 -102 -206 -104 -208 -1 -1 -15 -4 -31 -6
-34 -5 -123 -17 -144 -21 -8 -2 -71 -11 -140 -20 -136 -19 -171 -33 -163 -64
3 -11 79 -92 170 -181 l164 -161 -10 -52 c-6 -29 -13 -68 -15 -87 -3 -19 -17
-98 -30 -174 -13 -76 -22 -145 -19 -152 15 -39 61 -20 411 167 l42 23 113 -59
c151 -78 220 -116 230 -125 16 -15 -239 -191 -343 -237 -73 -32 -110 -46 -114
-42 -1 2 -7 24 -12 48 -12 59 -37 76 -82 54 -39 -19 -61 -57 -55 -95 l4 -27
-53 15 c-304 88 -756 484 -1033 904 -193 293 -306 585 -344 890 -8 70 -7 360
2 405 3 11 7 43 11 70 13 103 29 185 36 185 4 0 80 -71 169 -158 l163 -157
-16 -95 c-9 -52 -18 -113 -21 -135 -4 -22 -8 -47 -10 -55 -3 -8 -12 -55 -20
-103 -25 -142 -5 -154 128 -83 45 24 140 74 211 111 l129 68 66 -35 c36 -20
125 -66 196 -103 72 -37 134 -72 140 -76 5 -5 22 -9 37 -9 21 0 29 6 34 25 3
13 -12 128 -33 255 l-39 232 172 170 c95 93 174 179 177 189 7 26 -25 46 -83
54 -25 3 -103 14 -175 25 -71 10 -152 22 -180 25 -27 4 -55 12 -62 18 -6 7
-59 108 -117 225 -140 281 -123 282 -271 -10 -60 -119 -112 -219 -115 -221 -3
-3 -25 -7 -50 -10 -25 -3 -121 -17 -215 -31 -93 -14 -178 -26 -187 -26 -15 0
-14 9 9 83 157 515 462 908 857 1103 l89 44 71 -67 c39 -38 79 -76 89 -87z
m1521 -626 c87 -168 175 -428 202 -594 3 -21 8 -48 10 -60 2 -11 7 -41 9 -66
3 -25 7 -62 11 -83 6 -47 13 -270 8 -278 -2 -4 -58 22 -125 57 -67 35 -129 64
-138 64 -9 0 -27 -6 -41 -13 -14 -8 -92 -49 -175 -92 -82 -43 -165 -87 -184
-96 -19 -10 -36 -17 -39 -15 -2 2 2 33 9 67 6 35 13 73 14 84 5 29 15 86 21
118 3 16 7 38 9 50 1 12 8 53 14 90 9 54 9 72 -1 85 -7 10 -86 90 -175 177
-90 87 -161 160 -159 163 3 2 22 6 43 8 20 2 49 6 63 9 14 3 45 7 70 10 25 3
56 8 70 10 14 2 61 9 105 15 144 20 129 7 230 211 100 204 88 198 149 79z
m-1725 -464 c9 -3 40 -8 70 -11 30 -4 61 -8 70 -10 9 -1 36 -6 61 -9 25 -3 54
-8 66 -10 11 -2 47 -7 79 -10 33 -4 60 -8 62 -10 2 -1 -62 -66 -141 -143 -79
-78 -148 -149 -154 -158 -5 -10 -6 -35 -1 -59 20 -103 39 -215 44 -256 3 -25
10 -60 15 -77 4 -18 6 -33 3 -33 -5 0 -60 29 -280 146 -45 24 -90 44 -100 44
-10 0 -99 -43 -197 -95 -99 -52 -181 -93 -183 -92 -1 2 8 64 21 138 34 187 36
199 42 244 l6 41 -153 147 c-83 81 -150 149 -148 151 2 2 24 7 49 10 153 22
190 27 207 30 10 2 46 7 78 11 33 4 67 11 76 16 9 4 58 93 109 196 l93 188 95
-192 c53 -108 102 -195 111 -197z m892 -1407 c7 -4 37 -10 68 -14 31 -4 65 -9
76 -10 82 -12 122 -18 135 -20 8 -1 39 -6 69 -10 l54 -7 -146 -143 c-155 -150
-157 -153 -137 -225 5 -19 11 -53 14 -75 3 -22 10 -65 15 -95 6 -30 13 -70 16
-89 3 -19 8 -38 11 -42 15 -24 -25 -12 -117 37 -57 30 -136 71 -175 91 l-71
37 -64 -32 c-35 -17 -115 -59 -178 -92 -63 -33 -116 -58 -118 -56 -3 3 9 84
26 180 17 97 31 186 31 199 0 17 -40 62 -141 161 -78 75 -139 139 -137 141 2
3 38 9 79 15 41 6 88 13 104 16 17 3 44 6 60 8 47 5 118 17 138 23 11 3 52 73
109 186 l91 182 88 -179 c48 -99 93 -183 100 -187z"/>
</g>
</svg>
